<svg width="32" height="32" viewBox="0 0 32 32" fill="none" xmlns="http://www.w3.org/2000/svg">
<path id="Vector" d="M13.64 23.28L24.96 11.96L23.12 10.16L13.64 19.64L8.84 14.84L7.04 16.64L13.64 23.28ZM16 32C13.8133 32 11.7467 31.58 9.8 30.74C7.85333 29.9 6.15333 28.7533 4.7 27.3C3.24667 25.8467 2.1 24.1467 1.26 22.2C0.42 20.2533 0 18.1867 0 16C0 13.7867 0.42 11.7067 1.26 9.76C2.1 7.81333 3.24667 6.12 4.7 4.68C6.15333 3.24 7.85333 2.1 9.8 1.26C11.7467 0.42 13.8133 0 16 0C18.2133 0 20.2933 0.42 22.24 1.26C24.1867 2.1 25.88 3.24 27.32 4.68C28.76 6.12 29.9 7.81333 30.74 9.76C31.58 11.7067 32 13.7867 32 16C32 18.1867 31.58 20.2533 30.74 22.2C29.9 24.1467 28.76 25.8467 27.32 27.3C25.88 28.7533 24.1867 29.9 22.24 30.74C20.2933 31.58 18.2133 32 16 32Z" fill="#6200E2"/>
</svg>
